<?xml version="1.0" standalone="no"?>
<!DOCTYPE svg PUBLIC "-//W3C//DTD SVG 20010904//EN"
 "http://www.w3.org/TR/2001/REC-SVG-20010904/DTD/svg10.dtd">
<svg version="1.0" xmlns="http://www.w3.org/2000/svg"
 width="319.000000pt" height="319.000000pt" viewBox="0 0 319.000000 319.000000"
 preserveAspectRatio="xMidYMid meet">
<metadata>
Created by potrace 1.11, written by Peter Selinger 2001-2013
</metadata>
<g transform="translate(0.000000,319.000000) scale(0.100000,-0.100000)"
fill="#000000" stroke="none">
<path d="M0 1600 l0 -1500 1595 0 1595 0 0 1500 0 1500 -1595 0 -1595 0 0
-1500z m1505 529 c39 -14 75 -37 105 -68 25 -25 58 -53 73 -61 56 -29 104
-105 115 -183 17 -127 -8 -270 -72 -401 l-33 -67 40 -34 c56 -48 125 -70 222
-70 63 0 90 5 127 24 58 27 93 71 75 91 -9 10 -9 11 1 6 8 -5 12 0 12 17 0 17
-10 28 -36 40 -19 10 -40 14 -46 11 -6 -4 -8 -3 -5 3 4 5 -4 16 -17 23 -13 7
-50 39 -81 71 -32 33 -61 59 -66 59 -4 0 -10 -8 -12 -17 -3 -13 -5 -10 -6 6 0
14 -13 43 -28 64 -33 48 -46 163 -20 188 8 8 17 25 21 37 10 29 86 143 111
164 40 35 122 77 195 100 64 20 94 23 210 22 87 -1 151 -7 180 -16 43 -14 45
-16 43 -50 l-2 -36 59 -11 c33 -7 62 -16 65 -22 8 -12 -19 -99 -52 -166 l-25
-51 -51 31 c-43 26 -62 31 -135 35 -142 8 -242 -37 -258 -114 -6 -29 -3 -33
42 -58 26 -15 54 -24 61 -22 7 3 12 2 10 -2 -1 -4 48 -57 109 -117 l110 -110
-2 -65 c-7 -201 -156 -358 -385 -406 -52 -11 -109 -15 -191 -12 -79 3 -118 1
-118 -6 0 -6 -5 -3 -11 7 -5 9 -16 17 -24 17 -8 0 -33 7 -56 16 -38 16 -40 19
-35 50 6 28 4 33 -16 36 -14 3 -34 -6 -53 -21 l-30 -26 24 27 24 27 -27 12
c-14 7 -26 17 -26 24 0 6 13 51 30 100 16 49 28 90 27 92 -2 1 -18 -16 -35
-40 -38 -52 -84 -101 -138 -147 l-41 -35 88 -125 c48 -69 85 -128 81 -132 -6
-6 -202 -11 -308 -8 -14 0 -33 18 -58 55 -24 36 -43 55 -56 55 -12 0 -23 6
-25 13 -4 9 -39 12 -128 12 -172 0 -203 13 -328 135 -53 52 -107 114 -119 138
-45 91 -41 233 10 373 49 134 92 200 209 318 95 96 118 114 202 154 52 26 126
53 164 62 96 20 232 14 310 -16z m334 -293 c-2 -2 -13 8 -23 22 l-19 27 24
-22 c12 -12 21 -24 18 -27z m734 -73 c-18 -2 -48 -2 -65 0 -18 2 -4 4 32 4 36
0 50 -2 33 -4z m-213 -47 c0 -2 -8 -10 -17 -17 -16 -13 -17 -12 -4 4 13 16 21
21 21 13z m-463 -208 c-3 -8 -6 -5 -6 6 -1 11 2 17 5 13 3 -3 4 -12 1 -19z
m731 -163 c-3 -3 -9 2 -12 12 -6 14 -5 15 5 6 7 -7 10 -15 7 -18z m19 -97 c-2
-13 -4 -5 -4 17 -1 22 1 32 4 23 2 -10 2 -28 0 -40z m-46 -151 c-10 -9 -11 -8
-5 6 3 10 9 15 12 12 3 -3 0 -11 -7 -18z m-1001 -80 c0 -2 -10 -12 -22 -23
l-23 -19 19 23 c18 21 26 27 26 19z m940 -11 c0 -2 -8 -10 -17 -17 -16 -13
-17 -12 -4 4 13 16 21 21 21 13z m-1629 -83 c13 -16 12 -17 -3 -4 -10 7 -18
15 -18 17 0 8 8 3 21 -13z m196 -69 c-3 -3 -12 -4 -19 -1 -8 3 -5 6 6 6 11 1
17 -2 13 -5z m126 -1 c-7 -2 -19 -2 -25 0 -7 3 -2 5 12 5 14 0 19 -2 13 -5z
m810 0 c-7 -2 -21 -2 -30 0 -10 3 -4 5 12 5 17 0 24 -2 18 -5z m150 0 c-7 -2
-19 -2 -25 0 -7 3 -2 5 12 5 14 0 19 -2 13 -5z"/>
<path d="M1273 1841 c-166 -48 -316 -258 -330 -461 -8 -104 2 -120 71 -120
151 0 280 94 365 266 40 83 52 125 59 231 7 87 6 92 -13 97 -35 10 -88 5 -152
-13z m-13 -164 c0 -2 -10 -12 -22 -23 l-23 -19 19 23 c18 21 26 27 26 19z
m-60 -60 c0 -2 -10 -12 -22 -23 l-23 -19 19 23 c18 21 26 27 26 19z m-143
-269 c-3 -8 -6 -5 -6 6 -1 11 2 17 5 13 3 -3 4 -12 1 -19z m-10 -40 c-3 -8 -6
-5 -6 6 -1 11 2 17 5 13 3 -3 4 -12 1 -19z"/>
</g>
</svg>
